<?xml version="1.0" encoding="UTF-8" standalone="no"?>
<svg
   xmlns:dc="http://purl.org/dc/elements/1.1/"
   xmlns:cc="http://creativecommons.org/ns#"
   xmlns:rdf="http://www.w3.org/1999/02/22-rdf-syntax-ns#"
   xmlns:svg="http://www.w3.org/2000/svg"
   xmlns="http://www.w3.org/2000/svg"
   xmlns:sodipodi="http://sodipodi.sourceforge.net/DTD/sodipodi-0.dtd"
   xmlns:inkscape="http://www.inkscape.org/namespaces/inkscape"
   viewBox="0 0 64 64"
   enable-background="new 0 0 64 64"
   id="svg2"
   version="1.1"
   inkscape:version="0.91 r13725"
   sodipodi:docname="angry.svg"
   inkscape:export-filename="/home/cioc/Desktop/yomilio/static_shared/emojis/angry.png"
   inkscape:export-xdpi="90"
   inkscape:export-ydpi="90">
  <metadata
     id="metadata28">
    <rdf:RDF>
      <cc:Work
         rdf:about="">
        <dc:format>image/svg+xml</dc:format>
        <dc:type
           rdf:resource="http://purl.org/dc/dcmitype/StillImage" />
      </cc:Work>
    </rdf:RDF>
  </metadata>
  <defs
     id="defs26" />
  <sodipodi:namedview
     pagecolor="#ffffff"
     bordercolor="#666666"
     borderopacity="1"
     objecttolerance="10"
     gridtolerance="10"
     guidetolerance="10"
     inkscape:pageopacity="0"
     inkscape:pageshadow="2"
     inkscape:window-width="1920"
     inkscape:window-height="1054"
     id="namedview24"
     showgrid="false"
     inkscape:zoom="3.6875"
     inkscape:cx="-34.576271"
     inkscape:cy="31.457627"
     inkscape:window-x="0"
     inkscape:window-y="0"
     inkscape:window-maximized="1"
     inkscape:current-layer="svg2" />
  <circle
     cx="32"
     cy="32"
     r="30"
     fill="#ef5350"
     id="circle4" />
  <path
     d="m41 49.7c-5.8-4.8-12.2-4.8-18 0-.7.6-1.3-.4-.8-1.3 1.8-3.4 5.3-6.5 9.8-6.5s8.1 3.1 9.8 6.5c.5.8-.1 1.8-.8 1.3"
     fill="#302424"
     id="path6" />
  <path
     d="m10.2 24.9c-1.5 4.7.6 10 5.3 12.1 4.6 2.2 10 .5 12.7-3.7l-6.9-7.7-11.1-.7"
     fill="#fff"
     id="path8" />
  <g
     fill="#302424"
     id="g10">
    <path
       d="m14.2 25.8c-1.4 2.9-.1 6.4 2.8 7.7 2.9 1.4 6.4.1 7.7-2.8 1-1.9-9.6-6.8-10.5-4.9"
       id="path12" />
    <path
       d="m10.2 24.9c1.6-1 3.5-1.5 5.4-1.5 1.9 0 3.8.5 5.6 1.3 1.7.8 3.3 2 4.6 3.4 1.2 1.5 2.2 3.2 2.4 5.1-1.3-1.3-2.6-2.4-4-3.4-1.4-1-2.8-1.8-4.2-2.4-1.5-.7-3-1.2-4.6-1.7-1.8-.3-3.4-.6-5.2-.8"
       id="path14" />
  </g>
  <path
     d="m53.8 24.9c1.5 4.7-.6 10-5.3 12.1-4.6 2.2-10 .5-12.7-3.7l6.9-7.7 11.1-.7"
     fill="#fff"
     id="path16" />
  <g
     fill="#302424"
     id="g18">
    <path
       d="m49.8 25.8c1.4 2.9.1 6.4-2.8 7.7-2.9 1.4-6.4.1-7.7-2.8-1-1.9 9.6-6.8 10.5-4.9"
       id="path20" />
    <path
       d="m53.8 24.9c-1.6-1-3.5-1.5-5.4-1.5-1.9 0-3.8.5-5.6 1.3-1.7.8-3.3 2-4.6 3.4-1.2 1.5-2.2 3.2-2.4 5.1 1.3-1.3 2.6-2.4 4-3.4 1.4-1 2.8-1.8 4.2-2.4 1.5-.7 3-1.2 4.6-1.7 1.8-.3 3.4-.6 5.2-.8"
       id="path22" />
  </g>
</svg>
