<?xml version="1.0" encoding="UTF-8" standalone="no"?>
<svg
   xmlns:dc="http://purl.org/dc/elements/1.1/"
   xmlns:cc="http://creativecommons.org/ns#"
   xmlns:rdf="http://www.w3.org/1999/02/22-rdf-syntax-ns#"
   xmlns:svg="http://www.w3.org/2000/svg"
   xmlns="http://www.w3.org/2000/svg"
   xmlns:sodipodi="http://sodipodi.sourceforge.net/DTD/sodipodi-0.dtd"
   xmlns:inkscape="http://www.inkscape.org/namespaces/inkscape"
   height="100"
   viewBox="0 0 100 100"
   width="100"
   id="svg2"
   version="1.1"
   inkscape:version="0.91 r13725"
   sodipodi:docname="like.svg"
   inkscape:export-filename="/home/cioc/Desktop/yomilio/static_shared/emojis/like.png"
   inkscape:export-xdpi="90"
   inkscape:export-ydpi="90">
  <metadata
     id="metadata24">
    <rdf:RDF>
      <cc:Work
         rdf:about="">
        <dc:format>image/svg+xml</dc:format>
        <dc:type
           rdf:resource="http://purl.org/dc/dcmitype/StillImage" />
      </cc:Work>
    </rdf:RDF>
  </metadata>
  <defs
     id="defs22" />
  <sodipodi:namedview
     pagecolor="#ffffff"
     bordercolor="#666666"
     borderopacity="1"
     objecttolerance="10"
     gridtolerance="10"
     guidetolerance="10"
     inkscape:pageopacity="0"
     inkscape:pageshadow="2"
     inkscape:window-width="1920"
     inkscape:window-height="1054"
     id="namedview20"
     showgrid="false"
     inkscape:zoom="2.36"
     inkscape:cx="-54.025424"
     inkscape:cy="49.152542"
     inkscape:window-x="0"
     inkscape:window-y="0"
     inkscape:window-maximized="1"
     inkscape:current-layer="svg2" />
  <path
     d="M50 0c-27.615 0-50 22.385-50 50 0 27.614 22.386 50 50 50s50-22.387 50-50c0-27.615-22.387-50-50-50z"
     fill="#3E4F71"
     id="path4" />
  <path
     d="M47.985 68.99c-1.021 0-1.746-.787-1.995-.941-.797-.49-.603-.627-2.045-1.057l-4.038.01c-.503 0-.911-.404-.911-.902v-19.218c0-.499.408-.902.911-.902h5.342c.126-.068.518-.402 1.213-1.187 1.227-1.382 2.312-3.262 3.362-4.927.849-1.346 1.65-2.619 2.496-3.667 1.157-1.439 1.883-1.966 2.584-2.477.721-.522.574-.641 2.009-2.475 2.3-2.938 2.613-4.807 2.917-6.615.054-.32.109-.651.175-.981.259-1.307 1.405-2.659 2.876-2.658.53-.001 1.047.174 1.537.518 1.879 1.319 2.866 5.158 2.494 7.708-.383 2.619-1.578 6.005-2.681 7.23-.958 1.066-1.41 2.122-1.212 3.746.094.773 1.283.804 1.334.806l7.439.028c2.15.018 6.212.69 6.213 4.843 0 1.894-.77 3.071-1.666 3.757.852.758 1.516 1.742 1.278 3.609-.23 1.812-1.128 2.894-2.173 3.448.577.771.967 1.886.712 3.397-.245 1.455-1.134 2.469-2.048 2.961.431.658.699 1.666.473 2.869-.533 2.822-2.977 2.985-4.02 3.056l-.323.021h-22.253z"
     fill="#EFEFEF"
     id="path6" />
  <path
     d="M76.34 49.629c.896-.686 1.666-1.863 1.666-3.757-.001-4.153-4.062-4.826-6.213-4.843l-7.439-.029c-.051-.002-1.24-.032-1.334-.806-.198-1.624.254-2.68 1.212-3.746 1.103-1.225 2.298-4.611 2.681-7.23.372-2.55-.615-6.389-2.494-7.708-.49-.344-1.007-.519-1.537-.518-.553 0-1.061.191-1.492.5l.029.018c1.879 1.319 2.866 5.158 2.494 7.708-.383 2.619-1.578 6.005-2.681 7.23-.958 1.066-1.41 2.122-1.212 3.746.094.773 1.283.804 1.334.806l7.439.028c2.15.018 6.212.69 6.213 4.843 0 1.894-.77 3.071-1.666 3.757.852.758 1.516 1.742 1.278 3.609-.23 1.812-1.128 2.894-2.173 3.448.577.771.967 1.886.712 3.397-.245 1.455-1.134 2.469-2.048 2.961.431.658.699 1.666.473 2.869-.533 2.822-2.977 2.985-4.02 3.056l-.323.021h3l.323-.021c1.043-.07 3.486-.233 4.02-3.056.227-1.203-.042-2.211-.473-2.869.914-.492 1.803-1.506 2.048-2.961.255-1.512-.135-2.627-.712-3.397 1.045-.555 1.942-1.636 2.173-3.448.237-1.866-.427-2.85-1.278-3.608zm-36.465 17.366l.032.007 1.059-.003-.021-.007-1.07.003zM76.34 49.629c.896-.686 1.666-1.863 1.666-3.757-.001-4.153-4.062-4.826-6.213-4.843l-7.439-.029c-.051-.002-1.24-.032-1.334-.806-.198-1.624.254-2.68 1.212-3.746 1.103-1.225 2.298-4.611 2.681-7.23.372-2.55-.615-6.389-2.494-7.708-.49-.344-1.007-.519-1.537-.518-.553 0-1.061.191-1.492.5l.029.018c1.879 1.319 2.866 5.158 2.494 7.708-.383 2.619-1.578 6.005-2.681 7.23-.958 1.066-1.41 2.122-1.212 3.746.094.773 1.283.804 1.334.806l7.439.028c2.15.018 6.212.69 6.213 4.843 0 1.894-.77 3.071-1.666 3.757.852.758 1.516 1.742 1.278 3.609-.23 1.812-1.128 2.894-2.173 3.448.577.771.967 1.886.712 3.397-.245 1.455-1.134 2.469-2.048 2.961.431.658.699 1.666.473 2.869-.533 2.822-2.977 2.985-4.02 3.056l-.323.021h3l.323-.021c1.043-.07 3.486-.233 4.02-3.056.227-1.203-.042-2.211-.473-2.869.914-.492 1.803-1.506 2.048-2.961.255-1.512-.135-2.627-.712-3.397 1.045-.555 1.942-1.636 2.173-3.448.237-1.866-.427-2.85-1.278-3.608zm-36.465 17.366l.032.007 1.059-.003-.021-.007-1.07.003z"
     fill="#DCDCDC"
     id="path8" />
  <path
     d="M38.998 46.008h3.018v21h-3.018v-21z"
     fill="#D7D7D7"
     id="path10" />
  <path
     d="M37.68 70.001h-11.067c-1.274 0-2.312-1.04-2.312-2.317l-3.304-21.38c0-1.279 1.037-2.318 2.311-2.318h14.372c1.275 0 2.312 1.039 2.312 2.318v21.38c-.001 1.277-1.038 2.317-2.312 2.317z"
     fill="#5879BD"
     id="path12" />
  <path
     d="M33.993 61.006c1.105 0 2.001.895 2.001 1.999 0 1.103-.896 1.997-2.001 1.997s-2.002-.895-2.002-1.997c0-1.105.896-1.999 2.002-1.999z"
     fill="#fff"
     id="path14" />
  <path
     d="M39.68 68.001h-11.067c-1.274 0-2.312-1.04-2.312-2.317l-3.304-21.38.029-.289c-1.141.141-2.029 1.107-2.029 2.289l3.304 21.38c0 1.277 1.037 2.317 2.312 2.317h11.067c1.176 0 2.139-.889 2.282-2.028l-.282.028z"
     fill="#5170AE"
     id="path16" />
  <path
     d="M33.993 65.002c-1.105 0-2.002-.895-2.002-1.997 0-.292.066-.568.179-.818-.694.313-1.179 1.008-1.179 1.818 0 1.103.896 1.997 2.002 1.997.813 0 1.51-.486 1.823-1.181-.252.114-.529.181-.823.181z"
     fill="#48639A"
     id="path18" />
</svg>
