<?xml version="1.0" encoding="UTF-8" standalone="no"?>
<svg
   xmlns:dc="http://purl.org/dc/elements/1.1/"
   xmlns:cc="http://creativecommons.org/ns#"
   xmlns:rdf="http://www.w3.org/1999/02/22-rdf-syntax-ns#"
   xmlns:svg="http://www.w3.org/2000/svg"
   xmlns="http://www.w3.org/2000/svg"
   xmlns:sodipodi="http://sodipodi.sourceforge.net/DTD/sodipodi-0.dtd"
   xmlns:inkscape="http://www.inkscape.org/namespaces/inkscape"
   enable-background="new 0 0 64 64"
   height="64px"
   version="1.1"
   viewBox="0 0 64 64"
   width="64px"
   xml:space="preserve"
   id="svg2"
   inkscape:version="0.91 r13725"
   sodipodi:docname="love.svg"
   inkscape:export-filename="/home/cioc/Desktop/yomilio/static_shared/emojis/love.png"
   inkscape:export-xdpi="90"
   inkscape:export-ydpi="90"><metadata
     id="metadata26"><rdf:RDF><cc:Work
         rdf:about=""><dc:format>image/svg+xml</dc:format><dc:type
           rdf:resource="http://purl.org/dc/dcmitype/StillImage" /></cc:Work></rdf:RDF></metadata><defs
     id="defs24" /><sodipodi:namedview
     pagecolor="#ffffff"
     bordercolor="#666666"
     borderopacity="1"
     objecttolerance="10"
     gridtolerance="10"
     guidetolerance="10"
     inkscape:pageopacity="0"
     inkscape:pageshadow="2"
     inkscape:window-width="1920"
     inkscape:window-height="1054"
     id="namedview22"
     showgrid="false"
     inkscape:zoom="3.6875"
     inkscape:cx="32"
     inkscape:cy="31.457627"
     inkscape:window-x="0"
     inkscape:window-y="0"
     inkscape:window-maximized="1"
     inkscape:current-layer="svg2" /><g
     id="Layer_1"><g
       id="g5"><circle
         cx="32"
         cy="32"
         fill="#C75C5C"
         r="32"
         id="circle7" /></g><g
       opacity="0.2"
       id="g9"><g
         id="g11"><path
           d="M49.982,31.003c-0.094-5.522-4.574-10.442-10.107-10.442c-3.2,0-6.019,1.674-7.875,4.131     c-1.856-2.457-4.676-4.131-7.875-4.131c-5.533,0-10.012,4.921-10.107,10.442H14c0,0.034,0.007,0.065,0.007,0.099     c0,0.025-0.007,0.049-0.007,0.076c0,0.155,0.038,0.272,0.045,0.421c0.495,14.071,17.813,19.84,17.813,19.84     s17.572-5.762,18.092-19.818C49.959,31.464,50,31.34,50,31.178c0-0.027-0.007-0.052-0.007-0.076c0-0.036,0.007-0.065,0.007-0.099     H49.982z"
           fill="#231F20"
           id="path13" /></g></g><g
       id="g15"><g
         id="g17"><path
           d="M49.982,29.003c-0.094-5.522-4.574-10.442-10.107-10.442c-3.2,0-6.019,1.674-7.875,4.131     c-1.856-2.457-4.676-4.131-7.875-4.131c-5.533,0-10.012,4.921-10.107,10.442H14c0,0.034,0.007,0.065,0.007,0.099     c0,0.025-0.007,0.049-0.007,0.076c0,0.155,0.038,0.272,0.045,0.421c0.495,14.071,17.813,19.84,17.813,19.84     s17.572-5.762,18.092-19.818C49.959,29.464,50,29.34,50,29.178c0-0.027-0.007-0.052-0.007-0.076c0-0.036,0.007-0.065,0.007-0.099     H49.982z"
           fill="#FFFFFF"
           id="path19" /></g></g></g><g
     id="Layer_2" /></svg>