<?xml version="1.0" encoding="UTF-8" standalone="no"?>
<svg
   xmlns:dc="http://purl.org/dc/elements/1.1/"
   xmlns:cc="http://creativecommons.org/ns#"
   xmlns:rdf="http://www.w3.org/1999/02/22-rdf-syntax-ns#"
   xmlns:svg="http://www.w3.org/2000/svg"
   xmlns="http://www.w3.org/2000/svg"
   xmlns:sodipodi="http://sodipodi.sourceforge.net/DTD/sodipodi-0.dtd"
   xmlns:inkscape="http://www.inkscape.org/namespaces/inkscape"
   viewBox="0 0 64 64"
   enable-background="new 0 0 64 64"
   id="svg2"
   version="1.1"
   inkscape:version="0.91 r13725"
   sodipodi:docname="wow.svg"
   inkscape:export-filename="/home/cioc/Desktop/yomilio/static_shared/emojis/wow.png"
   inkscape:export-xdpi="90"
   inkscape:export-ydpi="90">
  <metadata
     id="metadata28">
    <rdf:RDF>
      <cc:Work
         rdf:about="">
        <dc:format>image/svg+xml</dc:format>
        <dc:type
           rdf:resource="http://purl.org/dc/dcmitype/StillImage" />
      </cc:Work>
    </rdf:RDF>
  </metadata>
  <defs
     id="defs26" />
  <sodipodi:namedview
     pagecolor="#ffffff"
     bordercolor="#666666"
     borderopacity="1"
     objecttolerance="10"
     gridtolerance="10"
     guidetolerance="10"
     inkscape:pageopacity="0"
     inkscape:pageshadow="2"
     inkscape:window-width="835"
     inkscape:window-height="504"
     id="namedview24"
     showgrid="false"
     inkscape:zoom="3.6875"
     inkscape:cx="32"
     inkscape:cy="31.457627"
     inkscape:window-x="0"
     inkscape:window-y="0"
     inkscape:window-maximized="0"
     inkscape:current-layer="svg2" />
  <circle
     cx="32"
     cy="32"
     r="30"
     fill="#ffdd67"
     id="circle4" />
  <circle
     cx="19"
     cy="29"
     r="11"
     fill="#fff"
     id="circle6" />
  <path
     d="m24 29c0 2.8-2.2 5-5 5-2.8 0-5-2.2-5-5s2.2-5 5-5c2.8 0 5 2.2 5 5"
     fill="#664e27"
     id="path8" />
  <path
     d="m56 29c0 6.1-4.9 11-11 11-6.1 0-11-4.9-11-11 0-6.1 4.9-11 11-11 6.1 0 11 4.9 11 11"
     fill="#fff"
     id="path10" />
  <path
     d="m50 29c0 2.8-2.2 5-5 5-2.8 0-5-2.2-5-5s2.2-5 5-5c2.8 0 5 2.2 5 5"
     fill="#664e27"
     id="path12" />
  <g
     fill="#917524"
     id="g14">
    <path
       d="m50.2 15.8c-3.2-2.7-7.5-3.9-11.7-3.1-.6.1-1.1-2-.4-2.2 4.8-.9 9.8.5 13.5 3.6.6.5-1 2.1-1.4 1.7"
       id="path16" />
    <path
       d="m25.5 12.5c-4.2-.7-8.5.4-11.7 3.1-.4.4-2-1.2-1.4-1.7 3.7-3.2 8.7-4.5 13.5-3.6.7.2.2 2.3-.4 2.2"
       id="path18" />
  </g>
  <circle
     cx="32"
     cy="49"
     r="9"
     fill="#664e27"
     id="circle20" />
  <path
     d="m26 46c1.2-2.4 3.4-4 6-4 2.6 0 4.8 1.6 6 4h-12"
     fill="#fff"
     id="path22" />
</svg>
