<?xml version="1.0" encoding="UTF-8" standalone="no"?>
<!-- Created with Inkscape (http://www.inkscape.org/) -->

<svg
   xmlns:dc="http://purl.org/dc/elements/1.1/"
   xmlns:cc="http://creativecommons.org/ns#"
   xmlns:rdf="http://www.w3.org/1999/02/22-rdf-syntax-ns#"
   xmlns:svg="http://www.w3.org/2000/svg"
   xmlns="http://www.w3.org/2000/svg"
   xmlns:sodipodi="http://sodipodi.sourceforge.net/DTD/sodipodi-0.dtd"
   xmlns:inkscape="http://www.inkscape.org/namespaces/inkscape"
   width="170mm"
   height="30mm"
   viewBox="0 0 602.36221 106.29921"
   id="svg2"
   version="1.1"
   inkscape:version="0.91 r13725"
   sodipodi:docname="yo_icon.svg">
  <defs
     id="defs4" />
  <sodipodi:namedview
     id="base"
     pagecolor="#ffffff"
     bordercolor="#666666"
     borderopacity="1.0"
     inkscape:pageopacity="0.0"
     inkscape:pageshadow="2"
     inkscape:zoom="0.7"
     inkscape:cx="74.087286"
     inkscape:cy="322.20738"
     inkscape:document-units="px"
     inkscape:current-layer="layer1"
     showgrid="false"
     inkscape:window-width="1920"
     inkscape:window-height="1054"
     inkscape:window-x="0"
     inkscape:window-y="0"
     inkscape:window-maximized="1" />
  <metadata
     id="metadata7">
    <rdf:RDF>
      <cc:Work
         rdf:about="">
        <dc:format>image/svg+xml</dc:format>
        <dc:type
           rdf:resource="http://purl.org/dc/dcmitype/StillImage" />
        <dc:title></dc:title>
      </cc:Work>
    </rdf:RDF>
  </metadata>
  <g
     inkscape:label="Layer 1"
     inkscape:groupmode="layer"
     id="layer1"
     transform="translate(0,-946.063)">
    <g
       id="g4226"
       transform="translate(-80.663523,897.63307)"
       style="stroke:#ffffff;stroke-opacity:1">
      <path
         sodipodi:nodetypes="cssc"
         inkscape:connector-curvature="0"
         id="path4144"
         d="m 111.02377,72.322415 c -0.0299,0.34908 -6.74342,34.211945 24.05817,33.780475 15.82959,-0.22174 21.96571,-6.540419 24.03517,-16.106131 1.26782,-5.860338 0.38336,-12.05925 0.0766,-17.604942"
         style="fill:none;fill-rule:evenodd;stroke:#ffffff;stroke-width:4.5;stroke-linecap:butt;stroke-linejoin:miter;stroke-miterlimit:4;stroke-dasharray:none;stroke-opacity:1" />
      <path
         inkscape:connector-curvature="0"
         id="path4146"
         d="m 133.93029,106.73713 0.51363,22.81108"
         style="fill:none;fill-rule:evenodd;stroke:#ffffff;stroke-width:4.5;stroke-linecap:butt;stroke-linejoin:miter;stroke-miterlimit:4;stroke-dasharray:none;stroke-opacity:1" />
      <path
         sodipodi:nodetypes="cscscsccc"
         inkscape:connector-curvature="0"
         id="path4158"
         d="m 245.14532,73.536332 c 0,0 5.46112,1.282616 5.90389,6.584116 0.44279,5.3015 0.738,37.794562 0.738,37.794562 0,0 -0.1476,6.66962 -4.72312,7.35367 -4.57553,0.68408 -59.85083,0.42755 -59.85083,0.42755 0,0 -6.19911,-0.76958 -6.4943,-7.09716 -0.2952,-6.32761 -0.11703,-35.659372 -0.11703,-35.659372 0,0 -0.91616,-7.43668 5.06154,-9.574381 23.72449,-0.08574 40.00358,-0.741191 59.48185,0.171015 z"
         style="fill:none;fill-rule:evenodd;stroke:#ffffff;stroke-width:3.94991064;stroke-linecap:butt;stroke-linejoin:miter;stroke-miterlimit:4;stroke-dasharray:none;stroke-opacity:1" />
      <path
         sodipodi:nodetypes="ccscccc"
         inkscape:connector-curvature="0"
         id="path4160"
         d="m 274.29096,126.00463 -0.12691,-47.67111 c 0,0 -0.88841,-6.82493 3.68056,-5.377219 4.56897,1.447713 25.51011,32.263309 25.51011,32.263309 l 19.54506,-27.196314 c 0,0 4.82281,-7.755603 7.36113,-4.032913 -0.16863,17.824722 0.3934,34.401107 0,52.324467"
         style="fill:none;fill-rule:evenodd;stroke:#ffffff;stroke-width:4.0827322;stroke-linecap:butt;stroke-linejoin:miter;stroke-miterlimit:4;stroke-dasharray:none;stroke-opacity:1" />
      <path
         sodipodi:nodetypes="ccscccc"
         inkscape:connector-curvature="0"
         id="path4160-9"
         d="m 347.82378,126.23258 -0.12691,-47.671117 c 0,0 -0.88841,-6.82493 3.68056,-5.377219 4.56897,1.447713 25.51011,32.263316 25.51011,32.263316 L 396.4326,78.251239 c 0,0 4.82281,-7.755603 7.36113,-4.032913 -0.16863,17.824722 0.3934,34.401114 0,52.324474"
         style="fill:none;fill-rule:evenodd;stroke:#ffffff;stroke-width:4.0827322;stroke-linecap:butt;stroke-linejoin:miter;stroke-miterlimit:4;stroke-dasharray:none;stroke-opacity:1" />
      <path
         inkscape:connector-curvature="0"
         id="path4177"
         d="m 428.30468,71.504083 0.50508,54.043157"
         style="fill:none;fill-rule:evenodd;stroke:#ffffff;stroke-width:4.5;stroke-linecap:butt;stroke-linejoin:miter;stroke-miterlimit:4;stroke-dasharray:none;stroke-opacity:1" />
      <path
         sodipodi:nodetypes="ccsc"
         inkscape:connector-curvature="0"
         id="path4179"
         d="m 450.14923,71.251544 -0.25254,41.416256 c 0,0 1.83845,10.48238 10.48033,10.73287 8.71257,0.25254 25.00128,0.75761 25.00128,0.75761"
         style="fill:none;fill-rule:evenodd;stroke:#ffffff;stroke-width:4.5;stroke-linecap:butt;stroke-linejoin:miter;stroke-miterlimit:4;stroke-dasharray:none;stroke-opacity:1" />
      <path
         sodipodi:nodetypes="ccsc"
         inkscape:connector-curvature="0"
         id="path4179-9"
         d="m 495.03104,72.648379 -0.25254,41.416251 c 0,0 1.83845,10.48238 10.48033,10.73287 8.71257,0.25254 25.00128,0.75761 25.00128,0.75761"
         style="fill:none;fill-rule:evenodd;stroke:#ffffff;stroke-width:4.5;stroke-linecap:butt;stroke-linejoin:miter;stroke-miterlimit:4;stroke-dasharray:none;stroke-opacity:1" />
      <path
         inkscape:connector-curvature="0"
         id="path4177-7"
         d="m 548.31889,72.483483 0.50508,54.043157"
         style="fill:none;fill-rule:evenodd;stroke:#ffffff;stroke-width:4.5;stroke-linecap:butt;stroke-linejoin:miter;stroke-miterlimit:4;stroke-dasharray:none;stroke-opacity:1" />
      <path
         sodipodi:nodetypes="cscscsccc"
         inkscape:connector-curvature="0"
         id="path4158-8"
         d="m 639.69402,72.926995 c 0,0 5.46112,1.282616 5.90389,6.584116 0.44279,5.3015 0.738,37.794569 0.738,37.794569 0,0 -0.1476,6.66962 -4.72312,7.35367 -4.57553,0.68408 -59.85083,0.42755 -59.85083,0.42755 0,0 -6.19911,-0.76958 -6.4943,-7.09716 -0.2952,-6.32761 -0.11703,-35.659379 -0.11703,-35.659379 0,0 -0.91616,-7.43668 5.06154,-9.574381 23.72449,-0.08574 40.00358,-0.741191 59.48185,0.171015 z"
         style="fill:none;fill-rule:evenodd;stroke:#ffffff;stroke-width:3.94991064;stroke-linecap:butt;stroke-linejoin:miter;stroke-miterlimit:4;stroke-dasharray:none;stroke-opacity:1" />
    </g>
  </g>
</svg>
